<svg width="87" height="115" viewBox="0 0 87 115" fill="none" xmlns="http://www.w3.org/2000/svg">
    <path d="M44.8556 13.7344C35.2428 10.9787 21.9258 3 21.9258 3C21.9258 3 23.888 14.5218 26.5111 21.4791C30.0672 30.9111 32.0097 36.7719 39.3344 43.8802C46.6592 50.9885 50.6875 53.4325 59.5854 54.887C66.9107 56.0844 78.2695 51.4008 78.2695 51.4008C78.2695 51.4008 77.7625 37.0013 73.0691 29.6246C66.281 18.9556 54.4684 16.4902 44.8556 13.7344Z"
          stroke="url(#paint0_linear_25_316)" stroke-width="3"/>
    <path d="M28.853 41.6126C19.4614 45.0472 4 46.4424 4 46.4424C4 46.4424 12.3717 54.5981 18.5891 58.6758C27.0182 64.204 32.0399 67.7963 42.146 69.2269C52.2521 70.6574 56.947 70.26 64.9946 66.1949C71.6198 62.8483 78.041 52.3732 78.041 52.3732C78.041 52.3732 69.1505 41.0348 61.0128 37.8375C49.2432 33.2132 38.2447 38.1781 28.853 41.6126Z"
          stroke="url(#paint1_linear_25_316)" stroke-width="3"/>
    <path d="M33.1811 74.3724C27.7967 82.799 16.3494 93.2852 16.3494 93.2852C16.3494 93.2852 27.952 94.6927 35.3686 94.1641C45.4232 93.4476 51.5946 93.2585 60.4977 88.2668C69.4007 83.2752 72.8926 80.1119 76.8259 71.9991C80.064 65.3202 78.8168 53.0971 78.8168 53.0971C78.8168 53.0971 64.8714 49.4737 56.462 51.8668C44.2995 55.3279 38.5655 65.9457 33.1811 74.3724Z"
          stroke="url(#paint2_linear_25_316)" stroke-width="3"/>
    <defs>
        <linearGradient id="paint0_linear_25_316" x1="54.3691" y1="12.3006" x2="42" y2="48.5"
                        gradientUnits="userSpaceOnUse">
            <stop stop-color="#7D60F1"/>
            <stop offset="0.48892" stop-color="#C096F8"/>
            <stop offset="1" stop-color="#F56AE2"/>
        </linearGradient>
        <linearGradient id="paint1_linear_25_316" x1="35.6969" y1="34.8507" x2="49.3834" y2="72.2756"
                        gradientUnits="userSpaceOnUse">
            <stop stop-color="#00BEF5"/>
            <stop offset="0.509223" stop-color="#00F1E3"/>
            <stop offset="1" stop-color="#00D479"/>
        </linearGradient>
        <linearGradient id="paint2_linear_25_316" x1="57.5" y1="59" x2="69.5" y2="94.5" gradientUnits="userSpaceOnUse">
            <stop stop-color="#FC966B"/>
            <stop offset="1" stop-color="#E83223"/>
        </linearGradient>
    </defs>
</svg>
